# AST/ASF file generated using VICON BodyLanguage
# -----------------------------------------------
:version 1.10
:name VICON
:units
  mass 1.0
  length 0.45
  angle deg
:documentation
   .ast/.asf automatically generated from VICON data using
   VICON BodyBuilder and BodyLanguage model FoxedUp or BRILLIANT.MOD
:root
   order TX TY TZ RX RY RZ
   axis XYZ
   position 0 0 0  
   orientation 0 0 0 
:bonedata
  begin
     id 1 
     name lhipjoint
     direction 0.558404 -0.748506 0.357664 
     length 2.4234 
     axis 0 0 0  XYZ
  end
  begin
     id 2 
     name lfemur
     direction 0.34202 -0.939693 0  
     length 7.14567  
     axis 0 0 20  XYZ
    dof rx ry rz
    limits (-160.0 20.0)
           (-70.0 70.0)
           (-60.0 70.0)
  end
  begin
     id 3 
     name ltibia
     direction 0.34202 -0.939693 0   
     length 8.13956   
     axis 0 0 20   XYZ
    dof rx
    limits (-10.0 170.0)
  end
  begin
     id 4 
     name lfoot
     direction 0.0791314 -0.217412 0.972867   
     length 2.00134   
     axis -90 7.62852e-016 20   XYZ
    dof rx rz
    limits (-45.0 90.0)
           (-70.0 20.0)
  end
  begin
     id 5 
     name ltoes
     direction 1.53547e-011 -4.21922e-011 1   
     length 1.00735   
     axis -90 7.62852e-016 20   XYZ
    dof rx
    limits (-90.0 20.0)
  end
  begin
     id 6 
     name rhipjoint
     direction -0.496392 -0.78327 0.374276   
     length 2.31584  
     axis 0 0 0  XYZ 
  end
  begin
     id 7 
     name rfemur
     direction -0.34202 -0.939693 0   
     length 7.47417   
     axis 0 0 -20   XYZ
    dof rx ry rz
    limits (-160.0 20.0)
           (-70.0 70.0)
           (-70.0 60.0)
  end
  begin
     id 8 
     name rtibia
     direction -0.34202 -0.939693 0   
     length 7.69071   
     axis 0 0 -20   XYZ
    dof rx
    limits (-10.0 170.0)
 end
 begin
     id 9 
     name rfoot
     direction -0.103069 -0.28318 0.953512   
     length 2.16135  
     axis -90 -7.62852e-016 -20   XYZ
    dof rx rz
    limits (-45.0 90.0)
           (-20.0 70.0)
  end
  begin
     id 10 
     name rtoes
     direction -1.53581e-011 -4.21904e-011 1   
     length 1.07867   
     axis -90 -7.62852e-016 -20   XYZ
    dof rx
    limits (-90.0 20.0)
  end
  begin
     id 11 
     name lowerback
     direction -0.0258961 0.994776 -0.0987407   
     length 2.19412   
     axis 0 0 0   XYZ
    dof rx ry rz
    limits (-20.0 45.0)
           (-30.0 30.0)
           (-30.0 30.0)
  end
  begin
     id 12 
     name upperback
     direction 0.0402454 0.999185 0.00320666   
     length 2.18445   
     axis 0 0 0   XYZ
    dof rx ry rz
    limits (-20.0 45.0)
           (-30.0 30.0)
           (-30.0 30.0)
  end
  begin
     id 13 
     name thorax
     direction 0.0519376 0.997415 0.0496558   
     length 2.21487   
     axis 0 0 0   XYZ
    dof rx ry rz
    limits (-20.0 45.0)
           (-30.0 30.0)
           (-30.0 30.0)
  end
  begin
     id 14 
     name lowerneck
     direction -0.0921276 0.983211 0.157506   
     length 1.61201   
     axis 0 0 0   XYZ
    dof rx ry rz
    limits (-20.0 45.0)
           (-30.0 30.0)
           (-30.0 30.0)
  end
  begin
     id 15 
     name upperneck
     direction 0.0820814 0.98162 -0.172292   
     length 1.65275   
     axis 0 0 0   XYZ
    dof rx ry rz
    limits (-20.0 45.0)
           (-30.0 30.0)
           (-30.0 30.0)
  end
  begin
     id 16
     name head
     direction 0.0336554 0.996413 -0.0776455  
     length 1.66415  
     axis 0 0 0   XYZ
    dof rx ry rz
    limits (-20.0 45.0)
           (-30.0 30.0)
           (-30.0 30.0)
  end
  begin
     id 17 
     name lclavicle
     direction 0.94696 0.284418 -0.149576  
     length 3.41447  
     axis 0 0 0   XYZ
    dof ry rz
    limits (-20.0 10.0)
           (0.0 20.0)
  end
  begin
     id 18 
     name lhumerus
     direction 1 -0.000130264 -9.81312e-005   
     length 5.19964   
     axis 180 -30 -90   XYZ
    dof rx ry rz
    limits (-60.0 90.0)
           (-90.0 90.0)
           (-90.0 90.0)
  end
  begin
     id 19
     name lradius
     direction 1 -4.48961e-011 1.43854e-026   
     length 3.32189   
     axis 180 -30 -90   XYZ
    dof rx
    limits (-10.0 170.0)
  end
  begin
     id 20
     name lwrist
     direction 1 -4.48958e-011 3.1502e-026   
     length 1.66095   
     axis -1.97692e-014 90 90   XYZ
    dof ry
    limits (-180.0 0.0)
 end
  begin
     id 21 
     name lhand
     direction 1 -4.48927e-011 6.3004e-026   
     length 0.645616   
     axis -4.02019e-014 90 90   XYZ
    dof rx rz
    limits (-90.0 90.0)
           (-45.0 45.0)
  end
  begin
     id 22 
     name lfingers
     direction 1 -4.4904e-011 1.26008e-025   
     length 0.520512   
     axis -8.04039e-014 90 90   XYZ
    dof rx
    limits (0.0 90.0)
  end
  begin
     id 23
     name lthumb
     direction 0.707107 -6.34947e-011 0.707107   
     length 0.747354   
     axis -90 45 2.85299e-015   XYZ
    dof rx rz
    limits (-45.0 45.0)
           (-45.0 45.0)
  end
  begin
     id 24 
     name rclavicle
     direction -0.909391 0.383475 -0.161107   
     length 3.25176  
     axis 0 0 0   XYZ 
    dof ry rz
    limits (-10.0 20.0)
           (-20.0 0.0)
  end
  begin
     id 25 
     name rhumerus
     direction -1 -4.48965e-011 -1.81384e-027  
     length 5.6595   
     axis 180 30 90   XYZ
    dof rx ry rz
    limits (-90.0 60.0)
           (-90.0 90.0)
           (-90.0 90.0)
  end
  begin
     id 26 
     name rradius
     direction -1 -4.48996e-011 -8.09397e-027   
     length 3.37604   
     axis 180 30 90   XYZ
    dof rx
    limits (-10.0 170.0)
  end
  begin
     id 27 
     name rwrist
     direction -1 -4.48927e-011 -1.56669e-026   
     length 1.68802   
     axis 1.21142e-014 -90 -90   XYZ
    dof ry
    limits (-180.0 0.0)
  end
  begin
     id 28
     name rhand
     direction -1 -4.48912e-011 -3.13339e-026   
     length 0.824702   
     axis 1.99937e-014 -90 -90   XYZ
    dof rx rz
    limits (-90.0 90.0)
           (-45.0 45.0)
  end
  begin
     id 29
     name rfingers
     direction -1 -4.49011e-011 -6.26677e-026   
     length 0.664896   
     axis 3.99874e-014 -90 -90   XYZ
    dof rx
    limits (0.0 90.0)
  end
  begin
     id 30
     name rthumb
     direction -0.707107 -6.34931e-011 0.707107   
     length 0.954662   
     axis -90 -45 -2.85299e-015   XYZ
    dof rx rz
    limits (-45.0 45.0)
           (-45.0 45.0)
  end
:hierarchy
  begin
    root lhipjoint rhipjoint lowerback
    lhipjoint lfemur
    lfemur ltibia
    ltibia lfoot
    lfoot ltoes
    rhipjoint rfemur
    rfemur rtibia
    rtibia rfoot
    rfoot rtoes
    lowerback upperback
    upperback thorax
    thorax lowerneck lclavicle rclavicle
    lowerneck upperneck
    upperneck head
    lclavicle lhumerus
    lhumerus lradius
    lradius lwrist
    lwrist lhand lthumb
    lhand lfingers
    rclavicle rhumerus
    rhumerus rradius
    rradius rwrist
    rwrist rhand rthumb
    rhand rfingers
  end

#!OML:ASF F:\VICON\USERDATA\INSTALL\rory3\rory3.ASF
:FULLY-SPECIFIED
:DEGREES
326
root 9.15008 17.8051 -14.5228 2.6174 -8.47358 -3.76577
lowerback 2.57722 2.95493 -1.00591
upperback -1.36994 3.97488 2.4362
thorax -3.09574 2.03042 2.85706
lowerneck -9.92209 -7.11995 -17.252
upperneck 21.0707 -9.88169 13.9098
head 9.87088 -4.68945 6.60803
rclavicle -2.03055e-014 -2.98177e-014
rhumerus -26.9087 -20.6745 -63.6362
rradius 36.6763
rwrist -12.7349
rhand -10.181 16.6768
rfingers 7.12502
rthumb 15.8093 -12.6977
lclavicle -2.03055e-014 -2.98177e-014
lhumerus -29.5677 21.6082 69.3128
lradius 30.511
lwrist -14.157
lhand -0.0933111 30.1472
lfingers 7.12502
lthumb 25.501 58.4608
rfemur -8.96988 -6.41426 18.0463
rtibia 34.0634
rfoot -21.4084 -18.7618
rtoes 13.7324
lfemur -14.8701 -9.07644 -13.9019
ltibia 36.6222
lfoot -20.9387 -3.24985
ltoes -2.34587
327
root 9.14471 17.8067 -14.5371 2.69079 -8.21404 -3.94522
lowerback 2.52124 3.0411 -0.814524
upperback -1.30214 4.09659 2.4739
thorax -2.99066 2.08638 2.78713
lowerneck -10.108 -7.18879 -16.7511
upperneck 21.1274 -9.87265 13.1817
head 9.85755 -4.70358 6.24615
rclavicle 6.61782e-014 7.7526e-015
rhumerus -26.6834 -20.7535 -63.7645
rradius 36.7401
rwrist -12.7751
rhand -10.1948 16.4549
rfingers 7.12502
rthumb 15.7961 -12.9206
lclavicle 6.61782e-014 7.7526e-015
lhumerus -29.4667 21.5961 69.4263
lradius 30.7702
lwrist -13.7851
lhand -0.0583835 30.4948
lfingers 7.12502
lthumb 25.5345 58.8035
rfemur -9.06945 -6.38087 18.3487
rtibia 34.0561
rfoot -21.3177 -19.1688
rtoes 13.2658
lfemur -15.0736 -9.14422 -13.6211
ltibia 36.6582
lfoot -20.8429 -3.39331
ltoes -2.52631
328
root 9.14007 17.8095 -14.5489 2.70696 -7.91377 -3.91126
lowerback 2.40844 3.124 -0.782832
upperback -1.19217 4.20394 2.40991
thorax -2.81252 2.13656 2.70735
lowerneck -9.82864 -7.23783 -16.4503
upperneck 20.7593 -9.94795 12.9355
head 9.65691 -4.74455 6.08743
rclavicle 2.61091e-014 -4.77083e-015
rhumerus -26.3734 -20.9886 -63.912
rradius 36.6367
rwrist -12.5469
rhand -10.1794 16.4983
rfingers 7.12502
rthumb 15.8108 -12.876
lclavicle 2.61091e-014 -4.77083e-015
lhumerus -29.2319 21.3675 69.6366
lradius 31.0453
lwrist -13.4341
lhand -0.0321153 31.4234
lfingers 7.12502
lthumb 25.5596 59.7285
rfemur -9.11596 -6.40885 18.3925
rtibia 34.0663
rfoot -21.2931 -19.4981
rtoes 12.9129
lfemur -15.2258 -9.28807 -13.5941
ltibia 36.6763
lfoot -20.7919 -3.56099
ltoes -2.51243
329
root 9.13894 17.8121 -14.5574 2.69528 -7.58384 -3.65187
lowerback 2.376 3.17413 -0.984546
upperback -1.10502 4.25989 2.31262
thorax -2.71481 2.16574 2.72127
lowerneck -9.95146 -7.25896 -16.4758
upperneck 20.8463 -9.98927 13.0585
head 9.72606 -4.74965 6.13138
rclavicle -4.35711e-014 -1.86858e-014
rhumerus -26.0665 -21.1696 -64.0118
rradius 36.4518
rwrist -12.1645
rhand -10.0257 16.8324
rfingers 7.12502
rthumb 15.9589 -12.5301
lclavicle -4.35711e-014 -1.86858e-014
lhumerus -28.9182 21.3368 69.8109
lradius 31.0099
lwrist -13.3995
lhand -0.128697 31.7189
lfingers 7.12502
lthumb 25.4671 60.0373
rfemur -9.11387 -6.59539 18.1195
rtibia 34.0829
rfoot -21.4029 -19.4886
rtoes 13.3331
lfemur -15.3546 -9.41185 -13.8457
ltibia 36.6843
lfoot -20.7372 -3.78397
ltoes -2.25011
